<mxfile host="app.diagrams.net" modified="2023-05-30T20:37:49.976Z" agent="Mozilla/5.0 (Windows NT 10.0; Win64; x64) AppleWebKit/537.36 (KHTML, like Gecko) Chrome/113.0.0.0 Safari/537.36 Edg/113.0.1774.57" version="21.3.5" etag="8RQOX6xxk-nZeyH0Qtyh" type="gitlab">
  <diagram name="Page-1" id="ZBr2NeBwEve-6yp4rQt4">
    <mxGraphModel>
      <root>
        <mxCell id="0" />
        <mxCell id="1" parent="0" />
      </root>
    </mxGraphModel>
  </diagram>
</mxfile>
